# xmcd
#
# Track frame offsets:
#	150
#	22315
#	43625
#	56742
#	72815
#	83892
#	99310
#	115495
#	129879
#	147787
#
# Disc length: 2195 seconds
#
# Revision: 1
# Processed by: cddbd v1.5PL3 Copyright (c) Steve Scherf et al.
# Submitted via: audiograbber 1.83.01
#
DISCID=8808910a
DTITLE=Adip Akbayram - Yillar
DYEAR=1900
DGENRE=
TTITLE0=Yillar
TTITLE1=Bu Gecede Bir Hal Var
TTITLE2=Sokagin Tavani Kadar
TTITLE3=Söyle Zalim Dünya
TTITLE4=Meydan Türküsü
TTITLE5=Kolum Nerden Aldin Zinciri
TTITLE6=Unutamiyorum
TTITLE7=Beyler Bu Vatana Nasil Kiydiniz
TTITLE8=Gitme Gülüm
TTITLE9=Gönül Dagi
EXTD=
EXTT0=
EXTT1=
EXTT2=
EXTT3=
EXTT4=
EXTT5=
EXTT6=
EXTT7=
EXTT8=
EXTT9=
PLAYORDER=
